PathFileType	4	(X/Y/Z)	3_coords_data.trc
DataRate	CameraRate	NumFrames	NumMarkers	Units	OrigDataRate	OrigDataStartFrame	OrigNumFrames
30.0	30.0	9	21	m	30.0	71	81
Frame#	Time	THUMB_TIP	THUMB_IP	THUMB_MCP	THUMB_CMC	INDEX_TIP	INDEX_DIP	INDEX_PIP	INDEX_MCP	MIDDLE_TIP	MIDDLE_DIP	MIDDLE_PIP	MIDDLE_MCP	RING_TIP	RING_DIP	RING_PIP	RING_MCP	PINKY_TIP	PINKY_DIP	PINKY_PIP	PINKY_MCP	WRIST
X1	Y1	Z1	X2	Y2	Z2	X3	Y3	Z3	X4	Y4	Z4	X5	Y5	Z5	X6	Y6	Z6	X7	Y7	Z7	X8	Y8	Z8	X9	Y9	Z9	X10	Y10	Z10	X11	Y11	Z11	X12	Y12	Z12	X13	Y13	Z13	X14	Y14	Z14	X15	Y15	Z15	X16	Y16	Z16	X17	Y17	Z17	X18	Y18	Z18	X19	Y19	Z19	X20	Y20	Z20	X21	Y21	Z21
69	2.3333333333333233	0.51550627438514	-0.00783832586191735	-0.16268043120331432	0.5051480055393337	-0.012328162787252017	-0.1426667451134932	0.48833724434458303	-0.022494561709094585	-0.1185241967597046	0.4782566254925795	-0.02744712018073603	-0.0753531035589805	0.5772605690798293	0.03499527581965439	-0.154488763253411	0.5602908113769286	0.0324688578915992	-0.14868837223575992	0.5377180453906019	0.027284777662821447	-0.13891057182318606	0.5055885056224313	0.010767914620037122	-0.11636013937696804	0.5892072574729168	0.04803714601581238	-0.13513337944552567	0.5721667078072477	0.04600698557462529	-0.12934562377731523	0.5450118370189745	0.0418083493625257	-0.11962996649483354	0.5096768590323683	0.023017198855605825	-0.09976844806566165	0.5855860114381659	0.04882422337718567	-0.10608815970122276	0.5682182853128444	0.05232952116044787	-0.10276025094549068	0.5439174566368524	0.05221987535077788	-0.09731620075684227	0.5127284206915598	0.031154246055137502	-0.08254446649231206	0.5794986048751499	0.04875955136652044	-0.08029747963270006	0.5631144978833182	0.051162717127243185	-0.07596321701874842	0.5428457782330923	0.048663362391866194	-0.07109040995840898	0.5150027809146713	0.027856447739866785	-0.06146111850000924	0.462283081001861	-0.023011742144276925	-0.051989820119430985
70	2.366666666666656	0.5154965214105666	-0.007847014362748261	-0.16268324935321848	0.5051080700208678	-0.012297384745963647	-0.1426763934988854	0.4882664620178354	-0.02245352464511785	-0.11855103210841073	0.4782210230808349	-0.02745019564880624	-0.0753768218036015	0.577247405112127	0.03498187072080383	-0.1544403805131136	0.5602594262540732	0.032511161921044696	-0.1486694037894467	0.5376838304980409	0.02731542963588096	-0.1389043295305829	0.5055424626046257	0.010778230952027346	-0.11638567895753804	0.5892184308578976	0.048043006179129266	-0.13515037308478972	0.5721683035283887	0.0460489644158979	-0.12937828892964953	0.5450224736235393	0.04180981948438228	-0.11965496033155137	0.5097331599078057	0.022942748778517652	-0.09978423056507213	0.5855467006122809	0.04878114263616684	-0.10603018162288269	0.5681812414263964	0.05229712061258135	-0.1027017095811274	0.5438666826594681	0.052318750176490514	-0.0973182401485439	0.5127720164196561	0.03110554635640861	-0.08255875001092838	0.5795396249620762	0.04864355096447942	-0.08023080833338403	0.5631563153070905	0.05108418187591812	-0.07591450372145236	0.5428801458811043	0.04862285412214029	-0.07105334767610871	0.5149426955531072	0.027913883861920563	-0.061486693562363914	0.4622830810018608	-0.023011742144276925	-0.051989820119430985
71	2.3999999999999897	0.5155231143582404	-0.007880057951152986	-0.16267785839575555	0.505114425746485	-0.012297853606162201	-0.14267430163866623	0.4882310788063229	-0.022431735236939754	-0.1185687620431396	0.4781914563591152	-0.027454175260875457	-0.07539618883602694	0.5773041941066563	0.034879671392541	-0.1543602590713103	0.5602922874141962	0.03248980424497616	-0.14862583968448312	0.5377116485486231	0.027289009768680983	-0.1388751310826477	0.5055346790517652	0.010764203680429851	-0.11639826493667499	0.5893124855366693	0.047970221863926465	-0.1351292253685571	0.5722535067686575	0.046001838788043314	-0.12937451325941574	0.5451138655419966	0.041737185900664664	-0.1196450651847149	0.5098384624389447	0.022840006155921133	-0.0997782472560162	0.5855922892929848	0.04870638630323859	-0.1059706033819145	0.5682256022239057	0.052188823358259306	-0.10261340031946714	0.5438973392611808	0.0523495640697168	-0.09729458817386683	0.5128868211846231	0.03100282711725416	-0.0825505919684324	0.5796281508314376	0.04848155506312968	-0.08015946034444088	0.563247118177385	0.05095217723798684	-0.0758515843880132	0.5429644204937198	0.04853318434575621	-0.07099641528072331	0.514928225067312	0.027926890386539838	-0.06149716024263585	0.4622830810018608	-0.023011742144276925	-0.051989820119430985
73	2.4333333333333345	0.5155451130409393	-0.007922611320495432	-0.1626835533459121	0.5051177726469314	-0.012304433272894544	-0.14268179820580085	0.4882623265011061	-0.022485791653750198	-0.11857673905329585	0.4781646564318124	-0.027463785285229636	-0.07541255669596814	0.5773349127092671	0.03478331938510576	-0.15429585814666286	0.5603015910748158	0.03247246887826161	-0.14859270778634842	0.5377005352007549	0.027308539413223865	-0.13886974841907296	0.50553008915053	0.01074804226588455	-0.11640981900772929	0.589397284623418	0.04788498998128954	-0.13511402577377363	0.5723267833648895	0.04596282288969594	-0.12937788940383171	0.5451979108886275	0.04165302465104537	-0.11963830690205907	0.5099177955923079	0.022763878244497326	-0.09977221685619475	0.5856143527767004	0.04863057613809013	-0.10591155086577198	0.5682503404552043	0.05211759717345388	-0.10254528284348663	0.5439114330255381	0.05238902114390109	-0.09727993450188455	0.5129854712500486	0.03091179006081962	-0.08254785157838462	0.5797243241176697	0.04829045567111723	-0.08010605921668512	0.5633476414426545	0.05080476760263153	-0.07580693138968353	0.5430627185830729	0.048413206995946645	-0.07094747036551874	0.5148859735993683	0.027966248511411274	-0.06152004325866889	0.4622830810018609	-0.023011742144276925	-0.051989820119430985
74	2.466666666666668	0.5155685671910566	-0.00796500574060166	-0.16268967561866282	0.5051253155487841	-0.01231300989141959	-0.14268884176002966	0.4883009575244952	-0.022547223205792055	-0.1185844468307547	0.47813880944273235	-0.02746939321631503	-0.07542899539351644	0.5773658118708135	0.034684862023407814	-0.15423122656979155	0.5603136884693233	0.032444032804035794	-0.14855638983998587	0.5376889099478859	0.027327739671141715	-0.13886346590372167	0.5055222017722614	0.010735190845226117	-0.1164218460289484	0.5894808287829177	0.04779232110512638	-0.13509790941784577	0.5723998285609545	0.04591344479354409	-0.1293787088423224	0.54527945408668	0.0415685695222725	-0.11963104772530475	0.5099908010956185	0.022694961248243772	-0.09976535363234762	0.5856406122938409	0.04854757312120256	-0.10585459654002027	0.5682798380441728	0.052042627795062246	-0.10247996911187424	0.5439316432190222	0.05241810283865894	-0.09726418477506066	0.5130820112065277	0.030821940468270304	-0.08254593727185933	0.579813437815295	0.048112615071396136	-0.0800627147540467	0.5634412841927653	0.05066644673602261	-0.07576963548747917	0.5431555580749626	0.048297108173894154	-0.07090264774848576	0.5148464263433177	0.028002929117178832	-0.061541942218753865	0.462283081001861	-0.023011742144276925	-0.051989820119430985
75	2.5000000000000018	0.5155938329867108	-0.008004764302368406	-0.16269534608445846	0.5051381784519808	-0.012323187234440591	-0.1426945833082509	0.488342297686548	-0.02260926185330059	-0.11859240377509217	0.4781142669701284	-0.027469699512902124	-0.07544552053399223	0.5773951229746362	0.03459399752756537	-0.15416913861295006	0.5603283520978835	0.03240719826986421	-0.14851730343781083	0.5376786527689175	0.027344359719410738	-0.13885455956665893	0.505510064933258	0.01072573158839596	-0.1164349420475641	0.589557703023743	0.047697712794400104	-0.13508281678806705	0.572467834549016	0.045856297978171034	-0.1293779428200375	0.5453531046564869	0.041489780130524345	-0.11962425148078631	0.5100536518093683	0.02263680369204124	-0.09975815400030325	0.5856710124967339	0.04845711166589772	-0.10580020984566352	0.5683140712116262	0.0519639070722952	-0.1024180544377924	0.5439581101990186	0.05243503948183176	-0.09724648055694851	0.5131711851131862	0.030738080711020577	-0.08254518612900563	0.579891440447955	0.04795978215985164	-0.0800308799600189	0.5635236876139634	0.050545921838635655	-0.0757403614916774	0.543238701094888	0.04819162204999505	-0.07086300427427616	0.5148133452836483	0.028033461812545457	-0.06156079089004696	0.4622830810018608	-0.023011742144276925	-0.051989820119430985
76	2.533333333333335	0.5156213375837159	-0.00803940972501238	-0.16269978973299293	0.5051575496276942	-0.012334563557026335	-0.14269826991147044	0.4883816766990495	-0.02266511998408316	-0.11860118105432099	0.4780913793108069	-0.027463403449597412	-0.07546214704281229	0.5774211455058333	0.03452053509316111	-0.1541124272027265	0.5603453687491572	0.03236475712790465	-0.14847589728435723	0.5376716312064989	0.027356179159541194	-0.13884129269561218	0.5054927295849356	0.010719744996297242	-0.11644969956868612	0.5896225166042376	0.047606669227670706	-0.13507070257381315	0.5725259964038505	0.04579397998874557	-0.12937656921035567	0.5454134772724066	0.04142264099579679	-0.1196188926551599	0.5101025337761987	0.022592958548904862	-0.09975112354645438	0.5857055832454724	0.04835899568592583	-0.10574892496331234	0.5683531077158868	0.05188150782533879	-0.10236019345686087	0.5439910409281772	0.05243812889595689	-0.09722600863208813	0.5132477508603994	0.030665052599510023	-0.08254595078487292	0.5799545540914138	0.0478438045867467	-0.08001203687977643	0.5635907473712909	0.0504519769401105	-0.0757198035914276	0.5433081639791856	0.048103555234738304	-0.07082963534932907	0.5147904987113544	0.0280543865114542	-0.061574525832028604	0.462283081001861	-0.023011742144276925	-0.051989820119430985
77	2.566666666666668	0.5156515727807391	-0.008066478351416162	-0.16270231517993855	0.5051846809987561	-0.012346749261469503	-0.14269922898403342	0.4884144390181542	-0.022708001321283033	-0.11861140135958648	0.4780704939440322	-0.027449202454620902	-0.07547888680134651	0.577442213973559	0.03447427734148906	-0.15406390107111984	0.5603645722672287	0.03231955562343014	-0.1484326198609573	0.5376697252510714	0.027360973748244644	-0.13882188535727352	0.5054692529580678	0.010717308004865589	-0.11646670544902438	0.5896698722160633	0.04752469493928346	-0.135063520346495	0.5725694957888164	0.045729081689250384	-0.12937555945503587	0.5454551931700865	0.04137314992748359	-0.11961594870527897	0.5101336423134629	0.022566974579557364	-0.09974477020811878	0.5857443623409602	0.0482530785627211	-0.10570132101943253	0.568397031610763	0.051795572436104775	-0.10230708271103478	0.5440306445512961	0.052425717466501986	-0.09720197958681559	0.5133064813837741	0.030607721913555264	-0.08254859425416672	0.579999118485467	0.047776544124290166	-0.0800076579026906	0.5636384770636517	0.05039342743743391	-0.07570866569611845	0.5433600855306591	0.048039756959130764	-0.07080365895665108	0.514781656583264	0.028062245434912092	-0.0615810843053729	0.4622830810018608	-0.023011742144276925	-0.051989820119430985
78	2.6000000000000014	0.5156850641165328	-0.008083535054462354	-0.16270226178849373	0.5052208648661654	-0.012359387663561372	-0.14269682206541162	0.4884359535259106	-0.022731115252544454	-0.11862372467185395	0.4780519537075796	-0.02742579116967081	-0.07549574575090234	0.5774566430315934	0.03446484974795583	-0.15402622081234507	0.5603858779272164	0.03227443446196565	-0.1483878647020871	0.5376748624091094	0.027356468856225002	-0.13879447002465117	0.5054387026499378	0.010718491970893473	-0.11648653818092469	0.5896943240964632	0.0474572856681742	-0.13506320130139676	0.5725934790628695	0.04566417235404219	-0.12937586064167766	0.5454728803127475	0.041347300244328034	-0.11961638890273285	0.5101431762153271	0.022562385741237423	-0.09973959548678435	0.5857872956612051	0.04813923168814466	-0.10565799385548008	0.5684458457286307	0.05170629124264198	-0.10225943528298498	0.5440770478528992	0.05239617033160149	-0.0971735984851348	0.5133421645756527	0.030570955996037597	-0.08255348209911617	0.5800213681700784	0.04776976880404471	-0.08001915749071842	0.5636628118075573	0.05037906502743461	-0.07570763723066798	0.5433905369094375	0.04800708443717783	-0.07078619460329671	0.5147905843159708	0.028053571017529144	-0.06157840090103728	0.4622830810018608	-0.023011742144276925	-0.051989820119430985
